HIERARCHY
ROOT Hips
{
	OFFSET 0.000000 0.000000 0.000000
	CHANNELS 6 Xposition Yposition Zposition Xrotation Yrotation Zrotation
	JOINT LeftUpLeg_virtual
	{
		OFFSET 0.000000 0.000000 0.000000
		CHANNELS 3 Xrotation Yrotation Zrotation
		JOINT LeftUpLeg
		{
			OFFSET 15.427100 -6.655098 0.678600
			CHANNELS 3 Xrotation Yrotation Zrotation
			JOINT LeftLeg
			{
				OFFSET 4.081073 -39.591068 13.024000
				CHANNELS 3 Xrotation Yrotation Zrotation
				JOINT LeftFoot
				{
					OFFSET -4.081074 -37.707932 -15.979700
					CHANNELS 3 Xrotation Yrotation Zrotation
					JOINT LeftToeBase
					{
						OFFSET 5.346399 -15.068900 20.645000
						CHANNELS 3 Xrotation Yrotation Zrotation
						JOINT LeftToe_End
						{
							OFFSET 2.754700 0.931300 11.300900
							CHANNELS 3 Xrotation Yrotation Zrotation
							End Site
							{
								OFFSET 0 0 0
							}
						}
					}
				}
			}
		}
	}
	JOINT RightUpLeg_virtual
	{
		OFFSET 0.000000 0.000000 0.000000
		CHANNELS 3 Xrotation Yrotation Zrotation
		JOINT RightUpLeg
		{
			OFFSET -15.569500 -6.655098 0.678600
			CHANNELS 3 Xrotation Yrotation Zrotation
			JOINT RightLeg
			{
				OFFSET -4.081825 -39.591045 13.023800
				CHANNELS 3 Xrotation Yrotation Zrotation
				JOINT RightFoot
				{
					OFFSET 4.081824 -37.707954 -15.979600
					CHANNELS 3 Xrotation Yrotation Zrotation
					JOINT RightToeBase
					{
						OFFSET -5.346400 -15.068900 20.645000
						CHANNELS 3 Xrotation Yrotation Zrotation
						JOINT RightToe_End
						{
							OFFSET -2.754700 0.931300 11.300900
							CHANNELS 3 Xrotation Yrotation Zrotation
							End Site
							{
								OFFSET 0 0 0
							}
						}
					}
				}
			}
		}
	}
	JOINT Spine_virtual
	{
		OFFSET 0.000000 0.000000 0.000000
		CHANNELS 3 Xrotation Yrotation Zrotation
		JOINT Spine
		{
			OFFSET -0.279200 12.230698 -2.892100
			CHANNELS 3 Xrotation Yrotation Zrotation
			JOINT Spine1
			{
				OFFSET -0.232667 10.192268 -1.242267
				CHANNELS 3 Xrotation Yrotation Zrotation
				JOINT Spine1_split
				{
					OFFSET -0.232667 10.192268 -1.242267
					CHANNELS 3 Xrotation Yrotation Zrotation
					JOINT Spine2
					{
						OFFSET -0.232667 10.192268 -1.242267
						CHANNELS 3 Xrotation Yrotation Zrotation
						JOINT Neck_virtual
						{
							OFFSET 0.000000 0.000000 0.000000
							CHANNELS 3 Xrotation Yrotation Zrotation
							JOINT Neck
							{
								OFFSET -0.418800 17.814194 8.416900
								CHANNELS 3 Xrotation Yrotation Zrotation
								JOINT Head
								{
									OFFSET 0.000000 7.031097 3.806800
									CHANNELS 3 Xrotation Yrotation Zrotation
									JOINT HeadTop_End
									{
										OFFSET 0.000000 24.646606 12.978600
										CHANNELS 3 Xrotation Yrotation Zrotation
										End Site
										{
											OFFSET 0 0 0
										}
									}
								}
							}
						}
						JOINT LeftShoulder_virtual
						{
							OFFSET 0.000000 0.000000 0.000000
							CHANNELS 3 Xrotation Yrotation Zrotation
							JOINT LeftShoulder
							{
								OFFSET 8.476499 7.247704 -3.868750
								CHANNELS 3 Xrotation Yrotation Zrotation
								JOINT LeftShoulder_split
								{
									OFFSET 8.476499 7.247704 -3.868750
									CHANNELS 3 Xrotation Yrotation Zrotation
									JOINT LeftArm
									{
										OFFSET 9.308998 -2.777710 0.208600
										CHANNELS 3 Xrotation Yrotation Zrotation
										JOINT LeftForeArm
										{
											OFFSET 29.972298 0.000000 0.000000
											CHANNELS 3 Xrotation Yrotation Zrotation
											JOINT LeftHand
											{
												OFFSET 26.026505 0.000000 0.000000
												CHANNELS 3 Xrotation Yrotation Zrotation
												End Site
												{
													OFFSET 0 0 0
												}
											}
										}
									}
								}
							}
						}
						JOINT RightShoulder_virtual
						{
							OFFSET 0.000000 0.000000 0.000000
							CHANNELS 3 Xrotation Yrotation Zrotation
							JOINT RightShoulder
							{
								OFFSET -7.570500 7.247704 -3.868750
								CHANNELS 3 Xrotation Yrotation Zrotation
								JOINT RightShoulder_split
								{
									OFFSET -7.570500 7.247704 -3.868750
									CHANNELS 3 Xrotation Yrotation Zrotation
									JOINT RightArm
									{
										OFFSET -9.308998 -2.777710 0.208500
										CHANNELS 3 Xrotation Yrotation Zrotation
										JOINT RightForeArm
										{
											OFFSET -29.972300 0.000000 0.000000
											CHANNELS 3 Xrotation Yrotation Zrotation
											JOINT RightHand
											{
												OFFSET -26.026505 0.000000 0.000000
												CHANNELS 3 Xrotation Yrotation Zrotation
												End Site
												{
													OFFSET 0 0 0
												}
											}
										}
									}
								}
							}
						}
					}
				}
			}
		}
	}
}
MOTION
Frames: 5
Frame Time: 0.03333333
6.386155 71.450806 33.109615 0.000000 0.000000 0.000000 14.737296 -1.771007 -3.765033 -73.095831 23.284106 13.041641 106.474644 0.852467 -0.587649 -2.259627 2.483752 -1.778431 -0.385243 -1.366902 -0.076982 0.000000 0.000000 0.000000 9.751394 -9.107706 -1.852869 -29.299702 -7.730763 -1.392759 41.758561 8.760330 -1.050238 -33.636356 -6.653327 -6.437379 -14.718986 1.150363 -2.106902 0.000000 0.000000 0.000000 12.495598 -8.621444 -2.923614 8.650928 4.130635 3.286874 5.805648 -0.278585 -1.297994 0.438961 1.815995 -0.950758 0.000000 0.000000 0.000000 2.824288 0.076244 -1.954270 -0.448551 0.869755 -3.920238 -11.857503 11.816831 0.863821 0.000000 0.000000 0.000000 4.159229 -0.413386 -1.521110 -0.177113 -11.693824 -3.802526 1.291435 5.698445 -2.070843 9.460735 -9.268696 -49.608002 4.497542 -79.573944 4.971215 0.000000 0.000000 0.000000 3.884061 0.467628 -0.447548 2.743876 4.494596 13.779889 10.150006 0.466795 -3.931473 -0.736232 28.549506 24.864170 165.463231 72.728974 -168.239731 0.000000 0.000000 0.000000 
4.975606 71.699638 43.925644 0.000000 0.000000 0.000000 12.318326 -4.449780 -4.762392 -78.300271 23.224173 16.631454 95.136079 1.395954 -2.173157 -2.639714 1.131334 -4.992050 1.161874 -1.543498 1.283774 0.000000 0.000000 0.000000 8.960485 -10.822290 -2.785896 -21.671109 -6.881297 -0.154232 48.162153 8.197289 -1.029596 -34.541653 -4.642387 -7.791917 -7.482710 1.450901 -2.017048 0.000000 0.000000 0.000000 12.266579 -7.220968 -4.272519 8.519674 4.895206 2.988598 5.767990 -0.424796 -1.487178 0.999274 2.603468 -1.159336 0.000000 0.000000 0.000000 1.973684 0.247355 -2.015177 -0.348412 0.509690 -3.930055 -12.034316 12.433022 1.843018 0.000000 0.000000 0.000000 3.927169 -0.126853 -1.498796 -0.159068 -8.828693 -4.067318 2.561174 6.813076 -2.667658 16.575595 -6.991038 -49.119613 1.179677 -78.499706 1.322206 0.000000 0.000000 0.000000 3.493015 0.491590 -0.685953 2.564960 3.722154 13.903817 8.448835 -2.440760 -3.134300 -3.577834 25.292351 28.507429 172.557530 71.072162 -175.522543 0.000000 0.000000 0.000000 
3.591838 71.740341 56.237797 0.000000 0.000000 0.000000 8.924526 -6.481400 -5.953471 -80.228406 20.546771 17.578190 81.440403 2.060564 -3.070953 -4.776826 0.561159 -7.779269 2.554038 -1.844616 1.553664 0.000000 0.000000 0.000000 7.129134 -9.438839 -4.500938 -11.970648 -5.513493 2.649310 54.562181 6.519155 -2.077112 -32.958415 -2.435876 -9.005534 -10.126140 2.333893 -2.841007 0.000000 0.000000 0.000000 11.218879 -5.869642 -5.727912 8.196009 6.405470 2.776266 5.625597 -0.181048 -1.444316 0.823989 2.874331 -0.340140 0.000000 0.000000 0.000000 1.650997 0.687182 -1.904744 -0.540297 -0.616411 -3.726267 -11.676947 10.836553 2.568471 0.000000 0.000000 0.000000 3.804379 0.449058 -1.359481 0.058185 -5.425213 -4.386538 3.579049 6.498351 -2.664656 22.580756 -3.517578 -49.735252 -4.405608 -77.952157 -4.651018 0.000000 0.000000 0.000000 3.309297 0.865887 -0.904954 2.330496 3.140715 14.977934 7.013038 -3.602205 -2.699314 -7.846559 18.578529 33.307219 -179.151176 71.741937 176.000888 0.000000 0.000000 0.000000 
2.707802 70.801331 68.426376 0.000000 0.000000 0.000000 4.748128 -6.961444 -6.836438 -77.556757 16.689007 15.598216 70.493556 3.018989 -3.340873 -7.923530 1.499967 -8.320899 3.488794 -2.186636 0.649762 0.000000 0.000000 0.000000 5.566829 -6.390661 -5.952412 -2.817848 -3.765135 6.071064 59.638514 3.903497 -3.671277 -28.742116 -0.636284 -10.193139 -24.210869 3.596287 -4.139450 0.000000 0.000000 0.000000 7.912811 -4.178931 -6.859547 7.708000 8.183186 2.402221 5.302463 0.383670 -1.311423 0.699675 2.280954 0.547408 0.000000 0.000000 0.000000 1.673786 1.241380 -1.736078 -0.690340 -1.976659 -3.579757 -10.660797 7.394759 2.929771 0.000000 0.000000 0.000000 3.583908 1.145941 -1.244630 0.456525 -2.621393 -4.861417 4.396682 4.272528 -3.050328 25.589432 -0.523066 -50.783317 -10.038272 -77.492601 -10.463843 0.000000 0.000000 0.000000 3.332851 1.365744 -1.186634 2.132642 3.040555 16.822624 5.581175 -2.614025 -2.532636 -10.028999 11.509639 36.821219 -166.207613 76.652795 163.074373 0.000000 0.000000 0.000000 
2.340302 69.300484 80.312469 0.000000 0.000000 0.000000 -0.098457 -6.464893 -6.792259 -70.314988 12.846488 11.733057 64.452568 4.028265 -3.700680 -11.940509 3.323137 -6.072567 3.419413 -2.317901 -0.907497 0.000000 0.000000 0.000000 2.920050 -3.205210 -6.754307 0.430099 -3.665143 7.169372 68.421181 3.053091 -4.618989 -16.323580 0.403246 -9.016957 -32.785086 4.252978 -4.658592 0.000000 0.000000 0.000000 2.661068 -1.971217 -6.912099 7.219188 9.528050 1.534478 4.877348 1.080360 -1.250090 0.187380 1.497388 1.020922 0.000000 0.000000 0.000000 1.645607 1.631807 -1.607648 -0.459063 -3.201902 -3.600405 -8.509856 2.994635 2.973141 0.000000 0.000000 0.000000 3.184984 1.667628 -1.256365 0.953287 -1.573092 -5.892771 4.893666 1.306351 -3.857931 24.236865 1.066988 -51.529252 -11.889922 -75.480584 -12.223294 0.000000 0.000000 0.000000 3.464892 1.781667 -1.490988 1.866427 3.780544 19.005966 4.505626 0.233059 -1.886288 -8.856395 7.627381 38.669386 -97.113412 84.533918 94.302264 0.000000 0.000000 0.000000 
